<svg width="453" height="581" viewBox="0 0 453 581" fill="none" xmlns="http://www.w3.org/2000/svg">
<path d="M40 385L17.5 360.5L126 342H141H216L275.5 330.5L317.5 320.5H400.5L381 346L390 360.5L364 369.5L377.5 385L400.5 410.5L330.5 400.5L292.5 410.5L264 415L197.5 423.5H116H31.5L40 385Z" fill="#463200" fill-opacity="0.87"/>
<path d="M205 51.5L252 53L274 125.5L252 134.5L288 286.5L283 303L274 316.5L263 333L248.5 336.5L212.5 341H157.5H128.5L121.5 329L112.5 309L108 291L104.5 264.5L108 234L115 200L121.5 185.5L138 166L165 147L168 131L165 116L168 90.5L185.5 64.5L205 51.5Z" fill="#2C2828" stroke="#393333" stroke-linecap="round"/>
<path d="M210.5 103.087L231.5 100.587L252 99L264 111L276 123.5L266.5 131.087L261 136.587L257 145.087L259 158.087L262.5 172.087L270 181.587L280.5 195.587L288.5 220.087L293 259.087L288.5 284.587L282.5 287.087L270 292.087L252.5 295.087H238L219.5 292.087L208 284.587L199.5 272.087L191 251.587L187 233.587L185.5 220.087L187 195.587L191 172.087L195.5 153.587V140.587V125.087L199.5 112.087L210.5 103.087Z" fill="white" stroke="black" stroke-linecap="round"/>
<path d="M169.5 388.087L175.2 380.578C175.2 380.578 176.762 371.103 177.887 360.687C176.799 354.775 177.018 351.241 177.018 345.185C177.018 344.231 177.026 343.384 177.054 342.587H158.528C158.507 343.451 158.5 344.364 158.5 345.355C158.5 354.326 158.124 359.554 160 368.327C161.057 373.27 164.18 380.578 164.18 380.578L169.5 388.087Z" fill="#C4C4C4"/>
<path d="M167.6 320.087C161.98 319.749 161.464 326.902 160 332.338C158.986 336.103 158.645 338.76 158.541 342.087H177.075C177.163 340.227 177.381 338.584 177.894 336.381C177.943 336.168 177.991 335.951 178.037 335.731C177.391 332.494 176.433 328.773 175.2 326.978C172.931 323.676 171.599 320.327 167.6 320.087Z" fill="#C4C4C4"/>
<path d="M294.097 358.804L291.198 349.833C291.198 349.833 280.569 339.48 270.562 331.296L259 334.087L244.65 336.655C247.132 339.319 249.344 341.007 252.754 343.385C260.113 348.516 264.186 351.815 272.455 355.294C277.114 357.254 284.895 358.873 284.895 358.873L294.097 358.804Z" fill="#C4C4C4"/>
<path d="M188.984 345.185C189.02 343.062 188.984 342.636 188.984 342.636L188.978 342.587H179.026C179.03 343.159 179.026 344.035 179 345.355C178.908 349.982 178.453 355.453 177.887 360.687L177.894 360.722C178.511 364.066 180.333 369.008 180.333 369.008L183.439 374.087L186.766 369.008C186.766 369.008 188.823 354.541 188.984 345.185Z" fill="#C4C4C4"/>
<path d="M186.766 332.756C185.441 330.522 184.664 328.257 182.33 328.095C179.239 327.88 178.793 332.16 178.037 335.731C178.667 338.889 179 341.587 179 341.587C179 341.587 179.012 341.704 179.02 342.087H181.5L188.819 341.294C188.518 339.028 187.811 334.518 186.766 332.756Z" fill="#C4C4C4"/>
<path d="M406 61.0869C392.534 48.3721 381.222 44.396 363 41.0869C350.128 38.7494 343.583 37.0869 330.5 37.0869C311.755 37.0869 299.558 36.0573 281.5 41.0869C273.213 43.3949 262.292 49.2522 257.691 51.8331L268.5 47.5869C268.5 74.2616 273.099 89.4895 278.601 99.0466C280.027 98.4779 296.39 92.0459 315.5 88.587C334.584 85.1328 340.553 83.4908 364.5 85.0871C386.647 86.5634 426.234 98.6976 427.47 99.0779C425.347 93.1803 417.03 71.5025 406 61.0869Z" fill="#FC9904"/>
<path d="M118.5 425.587C118.5 425.587 99.5 464.087 89 496.087C86.2605 504.436 83.6378 515.626 89 522.587C92.3108 526.885 95.5859 529.238 101 529.587C107.1 529.98 115 522.587 115 522.587C115 522.587 117.184 530.524 121 533.587C125.51 537.206 130.158 538.801 135.5 536.587C141.317 534.176 143.5 522.587 143.5 522.587C143.5 522.587 146.845 535.66 153.5 536.587C159.041 537.359 162.163 533.658 166 529.587C169.474 525.901 170.051 522.763 172 518.087C174.807 511.353 175.325 507.188 177 500.087C183.697 471.693 182.5 425.587 182.5 425.587H118.5Z" fill="#2C2828"/>
<path d="M318 112.587C344.069 105.689 359.093 102.366 386 100.587C402.366 99.505 428 100.587 428 100.587C428 100.587 427.818 100.044 427.47 99.0779C426.234 98.6976 386.647 86.5634 364.5 85.0871C340.553 83.4908 334.584 85.1328 315.5 88.587C296.39 92.0459 280.027 98.4779 278.601 99.0466C285.268 110.628 293.261 113.882 296 119.087L292.261 120.452C299.867 117.939 310.077 114.684 318 112.587Z" fill="#FF6813"/>
<path d="M254.5 53.0869C254.5 53.0869 245.173 78.711 254.231 98.5956C255.175 100.667 256.318 102.676 257.691 104.587C265.297 115.167 275.5 126.571 275.5 126.571L272.754 127.573C277.45 125.304 281.5 124.087 281.5 124.087C281.5 124.087 285.997 122.521 292.261 120.452L296 119.087C293.261 113.882 285.268 110.628 278.601 99.0466C273.099 89.4895 268.5 74.2616 268.5 47.5869L257.691 51.8331C256.311 52.6075 255.5 53.0869 255.5 53.0869C255.5 53.0869 255.27 53.0388 254.839 52.9537L254.5 53.0869Z" fill="#2C2828"/>
<path d="M255.5 53.0869L254.987 55.5338L255.937 55.7328L256.772 55.2392L255.5 53.0869ZM201.5 53.0869L200.372 50.8559L200.372 50.8559L201.5 53.0869ZM168.5 129.087H171V128.592L170.812 128.135L168.5 129.087ZM117 193.587L119.292 194.586L119.292 194.586L117 193.587ZM104.5 262.587L102.006 262.419L101.998 262.537L102.001 262.655L104.5 262.587ZM110 303.587L112.387 302.843L112.387 302.843L110 303.587ZM130 342.087L127.923 343.479L128.666 344.587H130V342.087ZM181.5 342.087V344.587H181.635L181.769 344.572L181.5 342.087ZM260 333.587L260.269 336.072L261.135 335.979L261.755 335.367L260 333.587ZM281.5 303.587L279.145 302.747L279.145 302.747L281.5 303.587ZM281.5 199.087L279.266 200.209L281.5 199.087ZM261.388 171.5L263.771 170.743L263.771 170.743L261.388 171.5ZM260 137.587L262.155 138.854L262.155 138.854L260 137.587ZM281.5 124.087L282.22 126.481L282.271 126.466L282.322 126.448L281.5 124.087ZM318 112.587L318.639 115.004L318.639 115.004L318 112.587ZM386 100.587L386.165 103.081L386.165 103.081L386 100.587ZM428 100.587L427.894 103.085L431.523 103.238L430.371 99.7936L428 100.587ZM406 61.0869L404.283 62.9047L404.283 62.9047L406 61.0869ZM363 41.0869L363.447 38.6272L363.447 38.6272L363 41.0869ZM281.5 41.0869L280.829 38.6786L280.829 38.6786L281.5 41.0869ZM254.5 53.0869L253.586 50.76L252.536 51.1723L252.151 52.2318L254.5 53.0869ZM257.691 104.587L255.661 106.046L255.661 106.046L257.691 104.587ZM275.5 126.571L276.357 128.919L279.824 127.654L277.363 124.904L275.5 126.571ZM296 119.087L296.857 121.435L299.545 120.454L298.212 117.923L296 119.087ZM268.5 47.5869H271V43.9187L267.586 45.26L268.5 47.5869ZM231.5 100L231.596 102.498L231.625 102.497L231.654 102.495L231.5 100ZM206.5 106.5L207.883 108.583L207.883 108.583L206.5 106.5ZM189.5 181.087L191.967 181.49L189.5 181.087ZM189.5 247.587L187.072 248.185L187.072 248.185L189.5 247.587ZM206 282.087L204.245 283.868L204.245 283.868L206 282.087ZM233 294.587L232.609 297.056L232.609 297.056L233 294.587ZM274.5 290.587L275.406 292.917L275.406 292.917L274.5 290.587ZM290.091 284.015C291.156 283.136 291.307 281.56 290.428 280.495C289.549 279.431 287.973 279.28 286.909 280.159L290.091 284.015ZM207.58 103.546C208.657 104.41 210.231 104.237 211.095 103.16C211.959 102.083 211.786 100.51 210.709 99.6459L207.58 103.546ZM203.645 95.0957L205.922 94.0636L203.645 95.0957ZM203.645 86.5957L206.056 87.2559L206.063 87.2295L206.07 87.2029L203.645 86.5957ZM209.145 78.0957L210.257 80.3345L210.257 80.3345L209.145 78.0957ZM222.145 76.5958L222.666 74.1507L222.666 74.1507L222.145 76.5958ZM229.145 81.0957L227.462 82.9446L227.462 82.9446L229.145 81.0957ZM15.6313 357.114C14.2657 357.318 13.3237 358.59 13.5273 359.956C13.731 361.321 15.0031 362.263 16.3687 362.06L15.6313 357.114ZM130 342.587V340.087H129.815L129.631 340.114L130 342.587ZM211.5 342.587V345.087H211.722L211.94 345.048L211.5 342.587ZM259 334.087L259.44 336.548L259.514 336.535L259.587 336.517L259 334.087ZM317 320.087V317.587H316.703L316.413 317.657L317 320.087ZM400 322.587C401.381 322.587 402.5 321.468 402.5 320.087C402.5 318.706 401.381 317.587 400 317.587V322.587ZM32.5 421.587C31.1193 421.587 30 422.706 30 424.087C30 425.468 31.1193 426.587 32.5 426.587V421.587ZM197.5 424.087V426.587H197.657L197.814 426.567L197.5 424.087ZM284.5 413.087L284.814 415.567L284.986 415.545L285.154 415.5L284.5 413.087ZM332.5 400.087L332.963 397.63L332.4 397.524L331.846 397.674L332.5 400.087ZM401.037 415.544C402.394 415.799 403.701 414.907 403.957 413.55C404.212 412.193 403.32 410.886 401.963 410.63L401.037 415.544ZM118.5 425.587V423.087H116.946L116.258 424.481L118.5 425.587ZM89 496.087L86.6246 495.307L86.6246 495.307L89 496.087ZM89 522.587L90.9805 521.061L90.9805 521.061L89 522.587ZM101 529.587L100.839 532.082L100.839 532.082L101 529.587ZM115 522.587L117.41 521.924L116.313 517.934L113.292 520.762L115 522.587ZM121 533.587L122.565 531.637L122.565 531.637L121 533.587ZM135.5 536.587L136.457 538.896L136.457 538.896L135.5 536.587ZM143.5 522.587L145.922 521.967L141.043 522.124L143.5 522.587ZM153.5 536.587L153.155 539.063L153.155 539.063L153.5 536.587ZM166 529.587L164.181 527.872L164.181 527.872L166 529.587ZM172 518.087L169.692 517.125L169.692 517.125L172 518.087ZM177 500.087L179.433 500.661L179.433 500.661L177 500.087ZM182.5 425.587L184.999 425.522L184.936 423.087H182.5V425.587ZM160 332.338L162.414 332.988L162.414 332.988L160 332.338ZM167.6 320.087L167.75 317.591L167.6 320.087ZM175.2 326.978L173.14 328.394L173.14 328.394L175.2 326.978ZM179 341.587L181.488 341.341L181.485 341.311L181.481 341.281L179 341.587ZM179 345.355L181.5 345.405L181.5 345.405L179 345.355ZM175.2 380.578L177.191 382.09L177.566 381.596L177.667 380.985L175.2 380.578ZM169.5 388.087L167.46 389.532L169.43 392.313L171.491 389.599L169.5 388.087ZM164.18 380.578L161.881 381.561L161.986 381.806L162.14 382.024L164.18 380.578ZM160 368.327L162.445 367.804L162.445 367.804L160 368.327ZM252.754 343.385L254.184 341.334L254.184 341.334L252.754 343.385ZM242.934 334.709L244.849 333.101L244.849 333.101L242.934 334.709ZM237.232 321.467L235.271 319.917L237.232 321.467ZM247.232 319.175L247.215 321.675L247.215 321.675L247.232 319.175ZM261.388 324.414L262.609 322.232L262.583 322.218L262.557 322.204L261.388 324.414ZM264.48 326.569L265.95 324.548L265.95 324.548L264.48 326.569ZM291.198 349.833L293.577 349.065L293.387 348.475L292.943 348.042L291.198 349.833ZM294.097 358.804L294.116 361.303L297.524 361.278L296.476 358.035L294.097 358.804ZM284.895 358.873L284.386 361.32L284.647 361.375L284.914 361.373L284.895 358.873ZM272.455 355.294L273.424 352.989L273.424 352.989L272.455 355.294ZM177.894 336.381L175.458 335.815L175.458 335.815L177.894 336.381ZM182.33 328.095L182.156 330.589L182.33 328.095ZM186.766 332.756L184.615 334.031L184.615 334.031L186.766 332.756ZM188.984 342.636L191.475 342.423L191.473 342.397L191.47 342.372L188.984 342.636ZM188.984 345.185L186.484 345.142L186.484 345.142L188.984 345.185ZM186.766 369.008L188.857 370.378L189.162 369.912L189.241 369.36L186.766 369.008ZM183.439 374.087L181.306 375.391L183.366 378.76L185.53 375.457L183.439 374.087ZM180.333 369.008L177.988 369.873L178.073 370.103L178.201 370.313L180.333 369.008ZM177.894 360.722L175.435 361.176L175.435 361.176L177.894 360.722ZM277.562 96.7697C276.282 97.2879 275.665 98.7454 276.183 100.025C276.701 101.305 278.158 101.922 279.438 101.404L277.562 96.7697ZM315.5 88.587L315.945 91.047L315.5 88.587ZM364.5 85.0871L364.334 87.5815L364.5 85.0871ZM426.762 101.476C428.082 101.883 429.481 101.144 429.889 99.8247C430.296 98.5055 429.557 97.1057 428.238 96.6983L426.762 101.476ZM200.372 50.8559C184.243 59.0111 178.187 65.2833 173.397 72.735L177.603 75.4387C181.812 68.8905 187.113 63.1628 202.628 55.3179L200.372 50.8559ZM173.397 72.735C168.835 79.8323 155.182 103.309 166.188 130.039L170.812 128.135C160.818 103.865 173.166 82.3414 177.603 75.4387L173.397 72.735ZM166 129.087C166 137.512 164.317 141.743 162.121 144.449C160.991 145.842 159.632 146.949 158.023 148.043C157.215 148.594 156.366 149.126 155.453 149.696C154.551 150.258 153.588 150.857 152.613 151.507L155.387 155.667C156.287 155.067 157.183 154.51 158.1 153.937C159.005 153.373 159.934 152.791 160.836 152.177C162.649 150.944 164.446 149.52 166.004 147.6C169.183 143.681 171 138.162 171 129.087H166ZM152.613 151.507C148.718 154.104 141.183 159.993 133.691 167.358C126.231 174.69 118.577 183.712 114.708 192.588L119.292 194.586C122.77 186.605 129.867 178.127 137.196 170.923C144.491 163.753 151.783 158.07 155.387 155.667L152.613 151.507ZM114.708 192.588C109.91 203.596 106.753 221.17 104.791 235.741C103.803 243.077 103.107 249.741 102.658 254.57C102.434 256.985 102.271 258.943 102.164 260.299C102.111 260.978 102.071 261.505 102.045 261.864C102.032 262.044 102.022 262.182 102.016 262.275C102.012 262.321 102.01 262.357 102.008 262.381C102.007 262.393 102.007 262.402 102.006 262.408C102.006 262.412 102.006 262.414 102.006 262.416C102.006 262.417 102.006 262.417 102.006 262.418C102.006 262.418 102.006 262.419 104.5 262.587C106.994 262.755 106.994 262.755 106.994 262.755C106.994 262.755 106.994 262.754 106.994 262.754C106.995 262.752 106.995 262.751 106.995 262.748C106.995 262.743 106.996 262.735 106.996 262.724C106.998 262.702 107 262.668 107.003 262.624C107.01 262.535 107.019 262.403 107.032 262.228C107.057 261.878 107.096 261.36 107.149 260.692C107.254 259.357 107.415 257.422 107.637 255.032C108.081 250.252 108.769 243.659 109.746 236.408C111.712 221.805 114.805 204.878 119.292 194.586L114.708 192.588ZM104.5 262.587C102.001 262.655 102.001 262.655 102.001 262.655C102.001 262.656 102.001 262.656 102.001 262.657C102.001 262.658 102.001 262.659 102.001 262.661C102.001 262.665 102.001 262.67 102.002 262.677C102.002 262.69 102.002 262.71 102.003 262.735C102.005 262.787 102.007 262.862 102.01 262.96C102.017 263.156 102.027 263.443 102.041 263.813C102.07 264.553 102.116 265.624 102.187 266.957C102.328 269.62 102.568 273.333 102.958 277.535C103.735 285.887 105.128 296.356 107.613 304.331L112.387 302.843C110.066 295.395 108.708 285.363 107.937 277.072C107.554 272.951 107.319 269.306 107.18 266.692C107.111 265.385 107.065 264.338 107.037 263.619C107.023 263.26 107.014 262.982 107.008 262.796C107.005 262.703 107.002 262.633 107.001 262.586C107 262.563 107 262.546 107 262.534C106.999 262.529 106.999 262.525 106.999 262.522C106.999 262.521 106.999 262.52 106.999 262.519C106.999 262.519 106.999 262.519 106.999 262.519C106.999 262.519 106.999 262.519 104.5 262.587ZM107.613 304.331C110.219 312.695 115.337 322.518 119.723 330.149C121.929 333.987 123.975 337.313 125.47 339.681C126.218 340.865 126.829 341.811 127.254 342.462C127.466 342.788 127.632 343.04 127.746 343.212C127.803 343.298 127.846 343.363 127.876 343.408C127.891 343.43 127.902 343.448 127.91 343.459C127.914 343.465 127.917 343.47 127.919 343.473C127.92 343.475 127.921 343.476 127.922 343.477C127.922 343.477 127.922 343.478 127.923 343.478C127.923 343.478 127.923 343.479 130 342.087C132.077 340.695 132.077 340.695 132.077 340.695C132.077 340.695 132.077 340.695 132.077 340.695C132.076 340.695 132.076 340.694 132.075 340.693C132.073 340.69 132.071 340.687 132.068 340.682C132.061 340.672 132.051 340.657 132.038 340.637C132.011 340.596 131.97 340.534 131.916 340.453C131.808 340.29 131.647 340.046 131.441 339.73C131.028 339.097 130.431 338.173 129.698 337.011C128.23 334.688 126.221 331.422 124.058 327.657C119.704 320.082 114.821 310.655 112.387 302.843L107.613 304.331ZM283.855 304.427C286.804 296.158 289.457 288.56 291.371 281.764C293.279 274.986 294.5 268.842 294.5 263.5H289.5C289.5 268.158 288.423 273.782 286.558 280.409C284.697 287.018 282.1 294.464 279.145 302.747L283.855 304.427ZM294.5 263.5C294.5 253.918 299.882 230.099 283.734 197.964L279.266 200.209C294.728 230.978 289.5 253.082 289.5 263.5H294.5ZM283.734 197.964C279.02 188.584 274.797 184.748 271.286 181.631C269.569 180.106 268.22 178.913 267.016 177.337C265.839 175.798 264.746 173.813 263.771 170.743L259.006 172.257C260.129 175.796 261.469 178.314 263.043 180.373C264.589 182.396 266.311 183.9 267.966 185.369C271.2 188.241 274.935 191.59 279.266 200.209L283.734 197.964ZM263.771 170.743C259.938 158.67 256.572 148.352 262.155 138.854L257.845 136.32C250.921 148.099 255.37 160.807 259.006 172.257L263.771 170.743ZM318.639 115.004C344.625 108.127 359.478 104.846 386.165 103.081L385.835 98.0924C358.707 99.8857 343.512 103.25 317.36 110.17L318.639 115.004ZM386.165 103.081C394.241 102.548 404.656 102.546 413.097 102.681C417.308 102.748 421.011 102.849 423.659 102.934C424.984 102.976 426.044 103.013 426.773 103.041C427.137 103.054 427.418 103.065 427.608 103.073C427.703 103.077 427.775 103.08 427.823 103.082C427.847 103.083 427.865 103.083 427.877 103.084C427.883 103.084 427.888 103.084 427.89 103.085C427.892 103.085 427.893 103.085 427.894 103.085C427.894 103.085 427.894 103.085 427.894 103.085C427.894 103.085 427.894 103.085 428 100.587C428.105 98.0892 428.105 98.0892 428.105 98.0891C428.105 98.0891 428.104 98.0891 428.104 98.0891C428.103 98.0891 428.102 98.089 428.1 98.0889C428.097 98.0888 428.092 98.0886 428.085 98.0883C428.072 98.0878 428.053 98.087 428.028 98.086C427.979 98.0839 427.905 98.0809 427.808 98.077C427.614 98.0693 427.329 98.0581 426.96 98.0443C426.223 98.0167 425.153 97.9785 423.818 97.9361C421.149 97.8512 417.42 97.7494 413.177 97.6815C404.71 97.5461 394.125 97.5443 385.835 98.0924L386.165 103.081ZM407.716 59.2692C393.778 46.1078 381.95 41.9873 363.447 38.6272L362.553 43.5467C380.494 46.8047 391.291 50.6364 404.283 62.9047L407.716 59.2692ZM363.447 38.6272C350.659 36.305 343.859 34.5869 330.5 34.5869V39.5869C343.306 39.5869 349.596 41.1938 362.553 43.5467L363.447 38.6272ZM330.5 34.5869C311.915 34.5869 299.298 33.5346 280.829 38.6786L282.171 43.4953C299.818 38.58 311.594 39.5869 330.5 39.5869V34.5869ZM255.661 106.046C259.516 111.409 264.014 116.959 267.532 121.153C269.295 123.254 270.818 125.022 271.902 126.266C272.444 126.888 272.876 127.379 273.173 127.716C273.322 127.884 273.437 128.014 273.516 128.102C273.555 128.146 273.585 128.179 273.605 128.202C273.615 128.214 273.623 128.222 273.628 128.228C273.631 128.231 273.633 128.234 273.634 128.235C273.635 128.236 273.636 128.237 273.636 128.237C273.636 128.237 273.637 128.238 273.637 128.238C273.637 128.238 273.637 128.238 275.5 126.571C277.363 124.904 277.363 124.904 277.363 124.904C277.363 124.904 277.363 124.904 277.363 124.904C277.363 124.904 277.362 124.903 277.362 124.903C277.361 124.901 277.359 124.9 277.357 124.897C277.352 124.892 277.345 124.884 277.336 124.874C277.317 124.853 277.289 124.821 277.252 124.779C277.177 124.695 277.065 124.569 276.92 124.405C276.63 124.076 276.205 123.594 275.672 122.982C274.605 121.757 273.102 120.013 271.363 117.94C267.879 113.787 263.472 108.345 259.721 103.128L255.661 106.046ZM231.5 100C231.404 97.5018 231.404 97.5019 231.403 97.5019C231.403 97.5019 231.402 97.5019 231.402 97.5019C231.401 97.502 231.399 97.502 231.398 97.5021C231.395 97.5022 231.391 97.5024 231.386 97.5026C231.376 97.503 231.362 97.5036 231.344 97.5044C231.308 97.5059 231.258 97.5082 231.193 97.5115C231.063 97.5179 230.875 97.528 230.634 97.5429C230.154 97.5726 229.465 97.6216 228.613 97.6989C226.912 97.8535 224.548 98.1224 221.896 98.5815C216.677 99.4845 209.998 101.178 205.117 104.417L207.883 108.583C211.861 105.942 217.681 104.385 222.748 103.508C225.238 103.077 227.464 102.824 229.066 102.678C229.865 102.606 230.506 102.56 230.944 102.533C231.162 102.52 231.33 102.511 231.44 102.505C231.496 102.503 231.537 102.501 231.563 102.5C231.576 102.499 231.585 102.499 231.591 102.498C231.594 102.498 231.595 102.498 231.596 102.498C231.597 102.498 231.597 102.498 231.597 102.498C231.597 102.498 231.597 102.498 231.597 102.498C231.596 102.498 231.596 102.498 231.5 100ZM205.117 104.417C197.584 109.418 194.804 116.176 193.932 122.782C193.502 126.038 193.531 129.265 193.656 132.204C193.785 135.245 194 137.774 194 140.087H199C199 137.65 198.768 134.732 198.652 131.992C198.531 129.151 198.515 126.264 198.889 123.437C199.623 117.877 201.843 112.592 207.883 108.583L205.117 104.417ZM194 140.087C194 144.55 193.067 149.898 191.693 156.65C190.334 163.331 188.567 171.286 187.033 180.684L191.967 181.49C193.481 172.219 195.214 164.424 196.593 157.647C197.957 150.941 199 145.124 199 140.087H194ZM187.033 180.684C183.02 205.26 180.768 222.603 187.072 248.185L191.927 246.989C185.874 222.427 187.98 205.914 191.967 181.49L187.033 180.684ZM187.072 248.185C188.001 251.953 189.576 258.179 192.249 264.769C194.914 271.338 198.734 278.438 204.245 283.868L207.755 280.306C202.927 275.55 199.421 269.149 196.883 262.89C194.353 256.652 192.847 250.721 191.927 246.989L187.072 248.185ZM204.245 283.868C209.421 288.967 212.884 291.819 217.024 293.592C221.062 295.32 225.624 295.951 232.609 297.056L233.391 292.118C226.104 290.965 222.313 290.417 218.992 288.995C215.773 287.617 212.872 285.348 207.755 280.306L204.245 283.868ZM232.609 297.056C245.92 299.162 263.153 297.682 275.406 292.917L273.594 288.257C262.251 292.668 245.923 294.1 233.391 292.118L232.609 297.056ZM275.406 292.917C279.161 291.457 282.841 289.212 285.531 287.384C286.888 286.461 288.019 285.626 288.813 285.02C289.211 284.716 289.526 284.469 289.743 284.296C289.852 284.21 289.936 284.141 289.995 284.094C290.024 284.07 290.047 284.051 290.063 284.038C290.071 284.032 290.078 284.026 290.082 284.022C290.085 284.02 290.087 284.019 290.088 284.018C290.089 284.017 290.09 284.016 290.09 284.016C290.09 284.016 290.091 284.015 290.091 284.015C290.091 284.015 290.091 284.015 288.5 282.087C286.909 280.159 286.909 280.159 286.909 280.159C286.909 280.158 286.909 280.158 286.909 280.158C286.909 280.158 286.909 280.158 286.909 280.158C286.909 280.158 286.908 280.159 286.907 280.16C286.905 280.161 286.902 280.165 286.896 280.169C286.886 280.178 286.868 280.192 286.845 280.211C286.797 280.249 286.725 280.308 286.628 280.385C286.435 280.538 286.148 280.764 285.78 281.045C285.044 281.607 283.987 282.387 282.719 283.249C280.159 284.989 276.839 286.995 273.594 288.257L275.406 292.917ZM209.145 101.596C210.709 99.6459 210.71 99.6461 210.71 99.6463C210.71 99.6464 210.71 99.6466 210.71 99.6467C210.711 99.6469 210.711 99.6471 210.711 99.6472C210.711 99.6475 210.712 99.6475 210.711 99.6474C210.711 99.6472 210.71 99.6462 210.708 99.6444C210.703 99.641 210.695 99.6345 210.684 99.6252C210.661 99.6065 210.625 99.5763 210.576 99.5353C210.478 99.4534 210.332 99.329 210.15 99.1682C209.785 98.8454 209.282 98.3822 208.739 97.8268C207.606 96.6689 206.481 95.2963 205.922 94.0636L201.368 96.1277C202.295 98.1744 203.92 100.052 205.165 101.324C205.811 101.984 206.405 102.531 206.839 102.914C207.056 103.107 207.235 103.259 207.363 103.367C207.427 103.42 207.478 103.462 207.515 103.492C207.533 103.507 207.548 103.519 207.559 103.528C207.564 103.533 207.569 103.536 207.572 103.539C207.574 103.541 207.576 103.542 207.577 103.543C207.578 103.544 207.578 103.544 207.579 103.544C207.579 103.545 207.579 103.545 207.58 103.545C207.58 103.545 207.58 103.546 209.145 101.596ZM205.922 94.0636C205.486 93.101 205.415 91.5433 205.587 89.9066C205.667 89.1463 205.788 88.4683 205.889 87.9811C205.939 87.739 205.983 87.5478 206.014 87.4216C206.029 87.3586 206.041 87.3121 206.049 87.2838C206.052 87.2697 206.055 87.2602 206.056 87.2554C206.057 87.2531 206.057 87.2519 206.057 87.252C206.057 87.252 206.057 87.2523 206.057 87.253C206.057 87.2533 206.057 87.2537 206.056 87.2542C206.056 87.2545 206.056 87.2549 206.056 87.255C206.056 87.2554 206.056 87.2559 203.645 86.5957C201.234 85.9354 201.233 85.9359 201.233 85.9364C201.233 85.9366 201.233 85.9372 201.233 85.9376C201.233 85.9384 201.232 85.9393 201.232 85.9403C201.232 85.9422 201.231 85.9445 201.23 85.9471C201.229 85.9523 201.227 85.9587 201.225 85.9665C201.221 85.982 201.216 86.0026 201.209 86.0281C201.196 86.079 201.178 86.1494 201.156 86.2376C201.113 86.4137 201.056 86.6615 200.993 86.9661C200.867 87.5724 200.716 88.4192 200.614 89.3838C200.424 91.1967 200.353 93.8891 201.368 96.1277L205.922 94.0636ZM203.645 86.5957C206.07 87.2029 206.07 87.2035 206.07 87.204C206.07 87.2041 206.069 87.2046 206.069 87.2049C206.069 87.2055 206.069 87.2059 206.069 87.2063C206.069 87.207 206.069 87.2074 206.069 87.2074C206.069 87.2073 206.069 87.2057 206.07 87.2027C206.072 87.1965 206.075 87.1845 206.079 87.1668C206.089 87.1315 206.105 87.0739 206.127 86.9968C206.171 86.8424 206.24 86.611 206.335 86.3239C206.527 85.7457 206.818 84.9618 207.21 84.1339C208.056 82.3479 209.127 80.8962 210.257 80.3345L208.032 75.8569C205.312 77.2089 203.632 80.0072 202.692 81.9927C202.19 83.0506 201.827 84.0329 201.59 84.7494C201.47 85.1096 201.381 85.4078 201.32 85.621C201.289 85.7277 201.266 85.8136 201.249 85.8757C201.241 85.9067 201.234 85.9319 201.229 85.9508C201.227 85.9602 201.225 85.9681 201.223 85.9744C201.222 85.9776 201.222 85.9803 201.221 85.9826C201.221 85.9838 201.221 85.9849 201.22 85.9858C201.22 85.9863 201.22 85.987 201.22 85.9872C201.22 85.9878 201.22 85.9884 203.645 86.5957ZM210.257 80.3345C213.898 78.5252 217.535 78.1699 221.624 79.041L222.666 74.1507C217.588 73.069 212.785 73.4951 208.032 75.8569L210.257 80.3345ZM221.624 79.041C224.078 79.5637 224.802 80.5235 227.462 82.9446L230.828 79.2468C228.553 77.1762 226.739 75.0183 222.666 74.1507L221.624 79.041ZM227.462 82.9446C227.864 83.31 228.377 84.0916 228.848 85.4013C229.302 86.6658 229.645 88.2236 229.839 89.9097C230.235 93.3418 229.972 96.8853 229.151 99.1456L233.849 100.854C235.028 97.6147 235.254 93.2232 234.806 89.3368C234.579 87.3636 234.166 85.4162 233.553 83.7111C232.957 82.0511 232.093 80.3986 230.828 79.2468L227.462 82.9446ZM16.3687 362.06L130.369 345.06L129.631 340.114L15.6313 357.114L16.3687 362.06ZM317 322.587H400V317.587H317V322.587ZM197.814 426.567L284.814 415.567L284.186 410.607L197.186 421.607L197.814 426.567ZM285.154 415.5L333.154 402.5L331.846 397.674L283.846 410.674L285.154 415.5ZM332.037 402.544L401.037 415.544L401.963 410.63L332.963 397.63L332.037 402.544ZM118.5 425.587C116.258 424.481 116.258 424.481 116.258 424.481C116.258 424.482 116.257 424.482 116.257 424.483C116.256 424.484 116.255 424.486 116.254 424.489C116.252 424.494 116.248 424.501 116.243 424.51C116.234 424.53 116.22 424.558 116.201 424.596C116.164 424.671 116.11 424.782 116.038 424.929C115.895 425.221 115.684 425.653 115.413 426.214C114.87 427.335 114.084 428.971 113.108 431.033C111.156 435.156 108.444 440.987 105.403 447.821C99.3283 461.474 91.9137 479.188 86.6246 495.307L91.3754 496.866C96.5863 480.985 103.922 463.45 109.972 449.853C112.993 443.062 115.688 437.268 117.627 433.172C118.596 431.125 119.376 429.502 119.913 428.393C120.182 427.839 120.389 427.412 120.53 427.125C120.6 426.982 120.653 426.873 120.689 426.801C120.707 426.764 120.72 426.737 120.729 426.719C120.733 426.71 120.737 426.704 120.739 426.699C120.74 426.697 120.741 426.696 120.741 426.695C120.741 426.694 120.742 426.694 120.742 426.693C120.742 426.693 120.742 426.693 118.5 425.587ZM86.6246 495.307C85.2353 499.541 83.8174 504.66 83.4679 509.684C83.1198 514.686 83.8077 519.943 87.0195 524.113L90.9805 521.061C88.8301 518.27 88.1482 514.451 88.4558 510.031C88.7619 505.632 90.0252 500.981 91.3754 496.866L86.6246 495.307ZM87.0195 524.113C88.7753 526.392 90.6387 528.312 92.9058 529.7C95.2036 531.107 97.7789 531.884 100.839 532.082L101.161 527.092C98.807 526.94 97.0377 526.367 95.5167 525.436C93.9651 524.486 92.5355 523.08 90.9805 521.061L87.0195 524.113ZM100.839 532.082C102.874 532.213 104.902 531.694 106.687 530.981C108.493 530.261 110.205 529.28 111.661 528.324C113.123 527.363 114.373 526.394 115.258 525.667C115.701 525.303 116.056 524.996 116.304 524.777C116.428 524.668 116.525 524.58 116.593 524.518C116.627 524.487 116.654 524.462 116.673 524.445C116.683 524.436 116.691 524.429 116.697 524.423C116.699 524.42 116.702 524.418 116.704 524.416C116.705 524.415 116.706 524.415 116.706 524.414C116.707 524.414 116.707 524.413 116.707 524.413C116.708 524.413 116.708 524.412 115 522.587C113.292 520.762 113.292 520.761 113.292 520.761C113.292 520.761 113.293 520.761 113.293 520.761C113.293 520.76 113.293 520.76 113.293 520.76C113.293 520.76 113.293 520.761 113.292 520.761C113.29 520.763 113.286 520.766 113.281 520.772C113.27 520.782 113.252 520.799 113.226 520.822C113.176 520.868 113.097 520.938 112.993 521.03C112.785 521.214 112.475 521.482 112.083 521.805C111.295 522.452 110.19 523.307 108.914 524.145C107.632 524.988 106.226 525.782 104.834 526.337C103.423 526.9 102.176 527.158 101.161 527.092L100.839 532.082ZM115 522.587C112.59 523.25 112.59 523.251 112.59 523.251C112.59 523.251 112.59 523.252 112.59 523.252C112.59 523.253 112.591 523.254 112.591 523.255C112.591 523.257 112.592 523.259 112.593 523.262C112.595 523.269 112.597 523.277 112.6 523.286C112.605 523.306 112.613 523.333 112.623 523.367C112.642 523.436 112.671 523.533 112.707 523.655C112.781 523.899 112.889 524.245 113.029 524.666C113.31 525.508 113.727 526.665 114.274 527.93C115.317 530.344 117.015 533.594 119.435 535.537L122.565 531.637C121.169 530.517 119.867 528.267 118.864 525.947C118.387 524.844 118.02 523.826 117.772 523.083C117.649 522.713 117.556 522.415 117.495 522.213C117.465 522.112 117.442 522.035 117.428 521.986C117.421 521.961 117.416 521.944 117.413 521.933C117.412 521.928 117.411 521.924 117.41 521.923C117.41 521.922 117.41 521.922 117.41 521.922C117.41 521.922 117.41 521.922 117.41 521.922C117.41 521.923 117.41 521.923 117.41 521.923C117.41 521.923 117.41 521.924 115 522.587ZM119.435 535.537C121.862 537.484 124.482 539.016 127.355 539.705C130.278 540.407 133.314 540.199 136.457 538.896L134.543 534.277C132.344 535.189 130.385 535.291 128.521 534.843C126.607 534.384 124.648 533.309 122.565 531.637L119.435 535.537ZM136.457 538.896C138.503 538.049 140.065 536.472 141.235 534.84C142.418 533.191 143.324 531.315 144.004 529.607C144.689 527.887 145.173 526.262 145.486 525.071C145.643 524.473 145.759 523.979 145.836 523.629C145.875 523.454 145.904 523.315 145.924 523.217C145.934 523.167 145.941 523.129 145.947 523.101C145.95 523.087 145.952 523.075 145.954 523.067C145.954 523.062 145.955 523.059 145.956 523.056C145.956 523.055 145.956 523.053 145.956 523.052C145.956 523.052 145.956 523.051 145.957 523.051C145.957 523.05 145.957 523.05 143.5 522.587C141.043 522.124 141.043 522.124 141.043 522.123C141.043 522.123 141.043 522.123 141.043 522.123C141.044 522.122 141.044 522.122 141.044 522.122C141.044 522.122 141.043 522.123 141.043 522.124C141.043 522.126 141.042 522.132 141.04 522.14C141.037 522.156 141.032 522.182 141.024 522.219C141.01 522.291 140.986 522.404 140.954 522.55C140.889 522.844 140.789 523.273 140.65 523.8C140.372 524.857 139.947 526.279 139.359 527.758C138.766 529.249 138.036 530.722 137.173 531.925C136.298 533.144 135.406 533.92 134.543 534.277L136.457 538.896ZM143.5 522.587C141.078 523.207 141.078 523.207 141.078 523.208C141.078 523.208 141.079 523.209 141.079 523.209C141.079 523.211 141.079 523.212 141.08 523.213C141.081 523.217 141.082 523.22 141.083 523.225C141.085 523.234 141.088 523.247 141.092 523.262C141.101 523.293 141.112 523.336 141.127 523.391C141.157 523.5 141.2 523.654 141.256 523.848C141.369 524.237 141.536 524.785 141.757 525.442C142.198 526.75 142.864 528.523 143.762 530.345C144.652 532.15 145.818 534.103 147.292 535.702C148.757 537.292 150.704 538.722 153.155 539.063L153.845 534.111C152.968 533.989 152.002 533.436 150.969 532.314C149.943 531.201 149.025 529.713 148.247 528.134C147.477 526.571 146.891 525.018 146.496 523.846C146.3 523.263 146.153 522.783 146.057 522.452C146.009 522.287 145.974 522.16 145.951 522.077C145.94 522.036 145.932 522.005 145.927 521.987C145.925 521.977 145.923 521.971 145.922 521.968C145.922 521.966 145.921 521.965 145.921 521.965C145.921 521.965 145.921 521.965 145.922 521.965C145.922 521.966 145.922 521.966 145.922 521.966C145.922 521.967 145.922 521.967 143.5 522.587ZM153.155 539.063C160.216 540.047 164.264 535.074 167.819 531.302L164.181 527.872C160.061 532.243 157.867 534.671 153.845 534.111L153.155 539.063ZM167.819 531.302C171.706 527.178 172.525 523.325 174.308 519.049L169.692 517.125C167.577 522.2 167.243 524.623 164.181 527.872L167.819 531.302ZM174.308 519.049C177.218 512.066 177.803 507.573 179.433 500.661L174.567 499.513C172.848 506.802 172.396 510.64 169.692 517.125L174.308 519.049ZM179.433 500.661C182.841 486.212 184.221 467.383 184.76 452.278C185.03 444.702 185.09 438.02 185.082 433.231C185.079 430.835 185.058 428.912 185.038 427.586C185.028 426.923 185.018 426.409 185.011 426.06C185.008 425.885 185.005 425.752 185.003 425.662C185.001 425.616 185.001 425.582 185 425.559C185 425.547 185 425.538 184.999 425.532C184.999 425.529 184.999 425.527 184.999 425.525C184.999 425.524 184.999 425.523 184.999 425.523C184.999 425.522 184.999 425.522 182.5 425.587C180.001 425.652 180.001 425.652 180.001 425.652C180.001 425.652 180.001 425.652 180.001 425.653C180.001 425.654 180.001 425.656 180.001 425.659C180.001 425.664 180.001 425.671 180.002 425.682C180.002 425.703 180.003 425.735 180.004 425.778C180.006 425.864 180.009 425.993 180.012 426.163C180.019 426.503 180.029 427.008 180.039 427.661C180.058 428.967 180.079 430.868 180.082 433.239C180.09 437.981 180.03 444.6 179.763 452.1C179.226 467.147 177.856 485.567 174.567 499.513L179.433 500.661ZM182.5 423.087H118.5V428.087H182.5V423.087ZM162.414 332.988C162.79 331.591 163.129 329.991 163.446 328.665C163.783 327.258 164.123 326.029 164.548 325.012C164.977 323.986 165.416 323.37 165.835 323.026C166.181 322.741 166.638 322.534 167.45 322.582L167.75 317.591C165.753 317.471 164.037 318.031 162.66 319.163C161.356 320.234 160.52 321.683 159.935 323.083C159.346 324.491 158.931 326.048 158.584 327.501C158.217 329.035 157.942 330.368 157.586 331.688L162.414 332.988ZM167.45 322.582C168.618 322.653 169.368 323.114 170.165 324.028C170.601 324.527 171.026 325.139 171.519 325.901C171.981 326.615 172.548 327.533 173.14 328.394L177.261 325.563C176.718 324.772 176.267 324.034 175.716 323.183C175.197 322.381 174.614 321.521 173.933 320.741C172.497 319.094 170.582 317.762 167.75 317.591L167.45 322.582ZM173.209 379.067L167.509 386.575L171.491 389.599L177.191 382.09L173.209 379.067ZM171.54 386.642L166.22 379.133L162.14 382.024L167.46 389.532L171.54 386.642ZM164.18 380.578C166.479 379.596 166.479 379.596 166.479 379.596C166.479 379.596 166.479 379.596 166.479 379.596C166.479 379.596 166.479 379.596 166.479 379.596C166.479 379.595 166.478 379.594 166.478 379.593C166.476 379.59 166.475 379.586 166.472 379.579C166.467 379.567 166.458 379.548 166.448 379.522C166.426 379.47 166.393 379.393 166.351 379.292C166.266 379.089 166.143 378.792 165.992 378.419C165.69 377.673 165.275 376.628 164.829 375.432C163.923 373.008 162.933 370.087 162.445 367.804L157.555 368.85C158.124 371.51 159.224 374.715 160.144 377.181C160.611 378.43 161.043 379.52 161.359 380.299C161.517 380.689 161.646 381.001 161.737 381.218C161.782 381.326 161.817 381.41 161.842 381.468C161.854 381.497 161.864 381.52 161.87 381.535C161.874 381.543 161.876 381.549 161.878 381.553C161.879 381.555 161.88 381.557 161.88 381.558C161.88 381.559 161.881 381.559 161.881 381.56C161.881 381.56 161.881 381.56 161.881 381.56C161.881 381.561 161.881 381.561 164.18 380.578ZM162.445 367.804C160.637 359.351 161 354.438 161 345.355H156C156 354.215 155.611 359.757 157.555 368.85L162.445 367.804ZM244.849 333.101C243.917 331.992 242.799 330.8 241.892 329.781C240.931 328.7 240.117 327.718 239.526 326.788C238.93 325.849 238.676 325.137 238.633 324.596C238.598 324.149 238.688 323.656 239.193 323.018L235.271 319.917C234.03 321.487 233.508 323.214 233.649 324.991C233.782 326.673 234.492 328.187 235.305 329.468C236.124 330.757 237.164 331.988 238.157 333.104C239.205 334.282 240.141 335.27 241.02 336.317L244.849 333.101ZM239.193 323.018C239.919 322.1 240.727 321.748 241.932 321.617C242.591 321.546 243.336 321.547 244.243 321.578C245.092 321.607 246.17 321.668 247.215 321.675L247.249 316.675C246.29 316.668 245.427 316.616 244.414 316.581C243.459 316.548 242.421 316.535 241.391 316.647C239.219 316.883 237.03 317.691 235.271 319.917L239.193 323.018ZM247.215 321.675C247.892 321.68 249.015 321.91 250.492 322.386C251.913 322.844 253.465 323.463 254.926 324.098C256.38 324.731 257.709 325.365 258.676 325.842C259.158 326.08 259.548 326.277 259.816 326.415C259.95 326.483 260.053 326.537 260.121 326.572C260.156 326.59 260.181 326.604 260.198 326.612C260.206 326.617 260.212 326.62 260.216 326.622C260.218 326.623 260.219 326.624 260.22 326.624C260.22 326.624 260.22 326.624 260.221 326.624C260.221 326.624 260.22 326.624 260.22 326.624C260.22 326.624 260.22 326.624 261.388 324.414C262.557 322.204 262.556 322.203 262.556 322.203C262.556 322.203 262.556 322.203 262.555 322.203C262.555 322.203 262.554 322.202 262.553 322.202C262.552 322.201 262.549 322.2 262.546 322.198C262.541 322.195 262.532 322.191 262.522 322.185C262.501 322.174 262.471 322.158 262.432 322.138C262.354 322.098 262.241 322.039 262.097 321.965C261.809 321.818 261.396 321.608 260.887 321.357C259.872 320.857 258.468 320.186 256.92 319.513C255.379 318.843 253.661 318.154 252.025 317.627C250.444 317.117 248.722 316.685 247.249 316.675L247.215 321.675ZM261.388 324.414C260.168 326.595 260.167 326.595 260.166 326.595C260.166 326.595 260.166 326.594 260.165 326.594C260.164 326.594 260.164 326.593 260.163 326.593C260.161 326.592 260.16 326.591 260.158 326.59C260.155 326.589 260.153 326.587 260.15 326.586C260.145 326.583 260.141 326.58 260.138 326.579C260.131 326.575 260.128 326.573 260.129 326.573C260.131 326.574 260.146 326.584 260.178 326.604C260.243 326.645 260.369 326.727 260.581 326.87C261.005 327.157 261.754 327.678 263.009 328.591L265.95 324.548C264.666 323.614 263.869 323.057 263.383 322.728C263.139 322.564 262.969 322.453 262.85 322.378C262.791 322.34 262.743 322.311 262.705 322.288C262.686 322.276 262.668 322.266 262.653 322.257C262.645 322.252 262.637 322.248 262.63 322.244C262.626 322.242 262.623 322.24 262.619 322.238C262.618 322.237 262.616 322.236 262.614 322.235C262.613 322.235 262.613 322.234 262.612 322.234C262.611 322.233 262.611 322.233 262.61 322.233C262.61 322.233 262.609 322.232 261.388 324.414ZM288.819 350.602L291.718 359.572L296.476 358.035L293.577 349.065L288.819 350.602ZM294.078 356.304L284.876 356.373L284.914 361.373L294.116 361.303L294.078 356.304ZM284.895 358.873C285.404 356.425 285.404 356.425 285.404 356.425C285.404 356.425 285.404 356.425 285.404 356.425C285.404 356.425 285.404 356.425 285.404 356.425C285.403 356.425 285.402 356.425 285.401 356.424C285.398 356.424 285.393 356.423 285.386 356.421C285.373 356.418 285.353 356.414 285.325 356.408C285.271 356.397 285.188 356.379 285.081 356.356C284.867 356.309 284.553 356.24 284.161 356.151C283.376 355.973 282.281 355.715 281.045 355.397C278.538 354.753 275.576 353.895 273.424 352.989L271.485 357.598C273.993 358.653 277.251 359.584 279.8 360.24C281.091 360.572 282.233 360.841 283.052 361.027C283.462 361.12 283.793 361.193 284.022 361.242C284.137 361.267 284.226 361.286 284.288 361.299C284.318 361.306 284.342 361.311 284.359 361.314C284.367 361.316 284.373 361.318 284.378 361.319C284.38 361.319 284.382 361.319 284.383 361.32C284.384 361.32 284.385 361.32 284.385 361.32C284.385 361.32 284.385 361.32 284.386 361.32C284.386 361.32 284.386 361.32 284.895 358.873ZM273.424 352.989C265.457 349.637 261.634 346.529 254.184 341.334L251.324 345.436C258.591 350.503 262.915 353.992 271.485 357.598L273.424 352.989ZM182.156 330.589C182.358 330.603 182.542 330.638 182.929 331.152C183.148 331.442 183.374 331.816 183.66 332.328C183.918 332.79 184.264 333.438 184.615 334.031L188.916 331.481C188.605 330.957 188.357 330.484 188.025 329.889C187.719 329.342 187.357 328.721 186.924 328.145C186.007 326.928 184.635 325.749 182.503 325.601L182.156 330.589ZM188.984 342.636C186.493 342.849 186.493 342.849 186.493 342.848C186.493 342.848 186.493 342.847 186.493 342.847C186.493 342.846 186.493 342.845 186.493 342.844C186.492 342.843 186.492 342.841 186.492 342.84C186.492 342.837 186.492 342.834 186.491 342.832C186.491 342.826 186.491 342.822 186.49 342.818C186.49 342.811 186.49 342.806 186.49 342.805C186.489 342.802 186.49 342.81 186.491 342.833C186.493 342.879 186.496 342.976 186.498 343.145C186.502 343.485 186.502 344.096 186.484 345.142L191.483 345.228C191.502 344.151 191.502 343.488 191.497 343.084C191.495 342.881 191.491 342.739 191.487 342.639C191.485 342.588 191.483 342.547 191.481 342.513C191.48 342.495 191.479 342.48 191.478 342.465C191.477 342.458 191.477 342.45 191.476 342.444C191.476 342.44 191.476 342.437 191.476 342.433C191.475 342.432 191.475 342.43 191.475 342.428C191.475 342.427 191.475 342.427 191.475 342.426C191.475 342.425 191.475 342.425 191.475 342.425C191.475 342.424 191.475 342.423 188.984 342.636ZM186.484 345.142C186.406 349.697 185.863 355.556 185.33 360.328C185.065 362.703 184.805 364.788 184.611 366.279C184.514 367.025 184.433 367.621 184.378 368.03C184.35 368.234 184.328 368.392 184.313 368.498C184.306 368.551 184.3 368.591 184.296 368.618C184.294 368.631 184.293 368.641 184.292 368.647C184.291 368.651 184.291 368.653 184.291 368.655C184.291 368.655 184.291 368.656 184.291 368.656C184.291 368.656 184.291 368.656 184.291 368.656C184.291 368.656 184.291 368.656 186.766 369.008C189.241 369.36 189.241 369.36 189.241 369.36C189.241 369.36 189.241 369.36 189.241 369.359C189.241 369.359 189.241 369.358 189.241 369.357C189.242 369.355 189.242 369.352 189.243 369.348C189.244 369.341 189.245 369.33 189.247 369.316C189.251 369.287 189.257 369.245 189.265 369.189C189.28 369.079 189.303 368.916 189.331 368.707C189.389 368.288 189.47 367.681 189.569 366.924C189.766 365.41 190.03 363.294 190.299 360.883C190.835 356.082 191.401 350.029 191.483 345.228L186.484 345.142ZM184.675 367.638L181.347 372.717L185.53 375.457L188.857 370.378L184.675 367.638ZM185.572 372.783L182.466 367.704L178.201 370.313L181.306 375.391L185.572 372.783ZM180.333 369.008C182.679 368.143 182.679 368.144 182.679 368.144C182.679 368.144 182.679 368.144 182.679 368.144C182.679 368.144 182.679 368.144 182.679 368.144C182.679 368.143 182.679 368.143 182.678 368.142C182.678 368.14 182.677 368.137 182.675 368.133C182.672 368.125 182.668 368.113 182.661 368.095C182.649 368.061 182.63 368.01 182.606 367.942C182.557 367.807 182.486 367.608 182.399 367.358C182.223 366.857 181.983 366.155 181.724 365.352C181.198 363.719 180.63 361.774 180.352 360.268L175.435 361.176C175.774 363.014 176.426 365.212 176.965 366.886C177.24 367.737 177.494 368.479 177.679 369.01C177.772 369.276 177.849 369.489 177.902 369.637C177.929 369.711 177.95 369.769 177.964 369.809C177.971 369.829 177.977 369.844 177.981 369.855C177.983 369.86 177.985 369.865 177.986 369.868C177.986 369.869 177.987 369.871 177.987 369.872C177.987 369.872 177.987 369.872 177.988 369.873C177.988 369.873 177.988 369.873 177.988 369.873C177.988 369.873 177.988 369.873 180.333 369.008ZM315.945 91.047C325.562 89.3064 331.676 88.0621 338.409 87.4322C345.096 86.8067 352.429 86.788 364.334 87.5815L364.666 82.5926C352.624 81.7899 344.999 81.794 337.944 82.454C330.934 83.1096 324.522 84.4134 315.055 86.1269L315.945 91.047ZM32.5 426.587H197.5V421.587H32.5V426.587ZM243.77 337.859L260.269 336.072L259.731 331.101L243.232 332.888L243.77 337.859ZM260 333.587C261.755 335.367 261.755 335.367 261.755 335.367C261.755 335.367 261.756 335.367 261.756 335.367C261.756 335.366 261.756 335.366 261.756 335.366C261.757 335.365 261.758 335.365 261.758 335.364C261.76 335.362 261.762 335.36 261.765 335.357C261.771 335.352 261.779 335.344 261.789 335.334C261.81 335.313 261.839 335.284 261.878 335.245C261.955 335.168 262.066 335.056 262.21 334.91C262.498 334.619 262.913 334.194 263.431 333.652C264.467 332.568 265.916 331.014 267.579 329.126L263.826 325.821C262.216 327.651 260.814 329.154 259.817 330.197C259.318 330.719 258.921 331.125 258.651 331.399C258.516 331.536 258.412 331.639 258.344 331.708C258.309 331.743 258.284 331.768 258.267 331.785C258.259 331.793 258.253 331.799 258.249 331.803C258.247 331.804 258.246 331.806 258.245 331.806C258.245 331.807 258.244 331.807 258.244 331.807C258.244 331.807 258.244 331.807 258.244 331.807C258.244 331.807 258.244 331.807 258.244 331.807C258.245 331.807 258.245 331.807 260 333.587ZM267.203 325.474C266.781 325.157 266.363 324.848 265.95 324.548L263.009 328.591C263.401 328.876 263.799 329.17 264.202 329.473L267.203 325.474ZM241.02 336.317C241.22 336.554 241.417 336.785 241.611 337.01L245.391 333.737C245.213 333.532 245.033 333.32 244.849 333.101L241.02 336.317ZM267.579 329.126C272.878 323.108 280.684 313.314 283.855 304.427L279.145 302.747C276.329 310.642 269.123 319.806 263.826 325.821L267.579 329.126ZM258.56 331.626L244.21 334.194L245.091 339.116L259.44 336.548L258.56 331.626ZM242.821 338.359C245.482 341.217 247.865 343.024 251.324 345.436L254.184 341.334C250.823 338.991 248.781 337.422 246.48 334.951L242.821 338.359ZM291.198 349.833C292.943 348.042 292.943 348.042 292.942 348.042C292.942 348.042 292.942 348.042 292.942 348.042C292.941 348.041 292.941 348.041 292.94 348.04C292.939 348.039 292.937 348.037 292.934 348.034C292.928 348.028 292.92 348.021 292.91 348.01C292.889 347.99 292.857 347.96 292.816 347.92C292.735 347.841 292.614 347.724 292.457 347.573C292.144 347.27 291.686 346.831 291.106 346.278C289.945 345.172 288.294 343.613 286.329 341.797C282.404 338.171 277.204 333.498 272.145 329.361L268.979 333.231C273.927 337.278 279.045 341.874 282.936 345.47C284.879 347.265 286.511 348.806 287.656 349.898C288.229 350.443 288.68 350.876 288.987 351.172C289.14 351.32 289.258 351.434 289.336 351.51C289.376 351.548 289.406 351.577 289.425 351.596C289.435 351.606 289.442 351.613 289.447 351.618C289.45 351.62 289.451 351.622 289.452 351.623C289.453 351.623 289.453 351.624 289.454 351.624C289.454 351.624 289.454 351.624 289.454 351.624C289.454 351.624 289.454 351.624 291.198 349.833ZM269.975 328.866L258.413 331.657L259.587 336.517L271.149 333.726L269.975 328.866ZM264.202 329.473C265.737 330.625 267.346 331.896 268.979 333.231L272.145 329.361C270.471 327.992 268.806 326.677 267.203 325.474L264.202 329.473ZM271.149 333.726L317.587 322.517L316.413 317.657L269.975 328.866L271.149 333.726ZM246.48 334.951C246.127 334.572 245.765 334.169 245.391 333.737L241.611 337.01C242.022 337.484 242.423 337.932 242.821 338.359L246.48 334.951ZM211.94 345.048L245.091 339.116L244.21 334.194L211.06 340.126L211.94 345.048ZM177.054 340.087H158.528V345.087H177.054V340.087ZM156.028 342.527C156.007 343.419 156 344.354 156 345.355H161C161 344.374 161.007 343.483 161.027 342.647L156.028 342.527ZM175.2 380.578C177.667 380.985 177.667 380.985 177.667 380.985C177.667 380.985 177.667 380.984 177.667 380.984C177.667 380.984 177.667 380.983 177.667 380.983C177.667 380.981 177.668 380.979 177.668 380.977C177.669 380.972 177.67 380.965 177.672 380.955C177.675 380.936 177.679 380.908 177.685 380.871C177.697 380.798 177.715 380.689 177.738 380.547C177.783 380.265 177.849 379.85 177.932 379.32C178.097 378.262 178.329 376.742 178.596 374.897C179.13 371.207 179.806 366.203 180.373 360.956L175.402 360.419C174.843 365.587 174.176 370.529 173.647 374.181C173.383 376.006 173.154 377.507 172.992 378.55C172.91 379.071 172.845 379.478 172.801 379.754C172.779 379.892 172.762 379.997 172.75 380.068C172.745 380.103 172.74 380.129 172.737 380.147C172.736 380.155 172.735 380.162 172.734 380.166C172.734 380.168 172.734 380.17 172.734 380.171C172.733 380.171 172.733 380.171 172.733 380.172C172.733 380.172 172.733 380.172 172.733 380.172C172.733 380.172 172.733 380.172 175.2 380.578ZM180.346 360.235C179.309 354.6 179.518 351.338 179.518 345.185H174.518C174.518 351.143 174.289 354.949 175.428 361.14L180.346 360.235ZM179.518 345.185C179.518 344.242 179.526 343.429 179.553 342.675L174.556 342.499C174.526 343.339 174.518 344.22 174.518 345.185H179.518ZM176.501 345.306C176.411 349.826 175.964 355.214 175.402 360.419L180.373 360.956C180.941 355.692 181.406 350.138 181.5 345.405L176.501 345.306ZM180.352 360.268C180.35 360.257 180.348 360.246 180.346 360.235L175.428 361.14C175.431 361.152 175.433 361.164 175.435 361.176L180.352 360.268ZM130 345.087H158.528V340.087H130V345.087ZM158.541 344.587H177.075V339.587H158.541V344.587ZM179.572 342.206C179.653 340.503 179.849 339.011 180.329 336.947L175.458 335.815C174.914 338.158 174.674 339.95 174.578 341.968L179.572 342.206ZM180.329 336.947C180.383 336.714 180.434 336.48 180.483 336.249L175.591 335.213C175.547 335.421 175.503 335.622 175.458 335.815L180.329 336.947ZM180.489 335.242C180.157 333.58 179.738 331.753 179.231 330.086C178.741 328.476 178.104 326.79 177.261 325.563L173.14 328.394C173.529 328.961 173.988 330.033 174.447 331.541C174.889 332.993 175.271 334.645 175.586 336.22L180.489 335.242ZM157.586 331.688C156.519 335.649 156.152 338.499 156.042 342.009L161.04 342.165C161.138 339.021 161.453 336.557 162.414 332.988L157.586 331.688ZM180.483 336.249C180.911 334.226 181.143 332.643 181.631 331.417C181.858 330.847 182.043 330.633 182.107 330.577C182.124 330.562 182.113 330.575 182.082 330.586C182.051 330.596 182.065 330.582 182.156 330.589L182.503 325.601C181.074 325.501 179.81 325.944 178.816 326.813C177.904 327.61 177.351 328.65 176.985 329.569C176.288 331.322 175.919 333.666 175.591 335.213L180.483 336.249ZM175.586 336.22C175.891 337.751 176.125 339.175 176.283 340.218C176.362 340.738 176.421 341.161 176.461 341.452C176.481 341.598 176.495 341.71 176.505 341.785C176.51 341.823 176.514 341.851 176.516 341.869C176.517 341.878 176.518 341.884 176.518 341.889C176.519 341.891 176.519 341.892 176.519 341.893C176.519 341.893 176.519 341.893 176.519 341.893C176.519 341.893 176.519 341.893 176.519 341.893C176.519 341.893 176.519 341.893 176.519 341.893C176.519 341.893 176.519 341.893 179 341.587C181.481 341.281 181.481 341.281 181.481 341.281C181.481 341.281 181.481 341.28 181.481 341.28C181.481 341.28 181.481 341.28 181.481 341.28C181.481 341.279 181.481 341.278 181.481 341.277C181.481 341.275 181.48 341.273 181.48 341.27C181.479 341.263 181.478 341.254 181.477 341.243C181.474 341.22 181.469 341.187 181.464 341.144C181.453 341.059 181.437 340.936 181.416 340.78C181.373 340.466 181.31 340.018 181.227 339.469C181.061 338.373 180.814 336.869 180.489 335.242L175.586 336.22ZM161.027 342.647C161.031 342.484 161.035 342.323 161.04 342.165L156.042 342.009C156.037 342.18 156.032 342.353 156.028 342.527L161.027 342.647ZM179.553 342.675C179.558 342.516 179.565 342.36 179.572 342.206L174.578 341.968C174.569 342.144 174.562 342.32 174.556 342.499L179.553 342.675ZM130 344.587H158.541V339.587H130V344.587ZM179 341.587C176.512 341.833 176.512 341.833 176.512 341.833C176.512 341.832 176.512 341.832 176.512 341.832C176.512 341.832 176.512 341.831 176.512 341.831C176.512 341.83 176.512 341.829 176.512 341.828C176.512 341.827 176.511 341.825 176.511 341.824C176.511 341.821 176.511 341.818 176.511 341.816C176.51 341.811 176.51 341.806 176.509 341.803C176.509 341.795 176.508 341.791 176.508 341.789C176.508 341.787 176.509 341.796 176.51 341.82C176.512 341.868 176.517 341.968 176.52 342.14L181.519 342.033C181.515 341.823 181.509 341.673 181.504 341.566C181.501 341.513 181.498 341.469 181.496 341.433C181.494 341.415 181.493 341.398 181.492 341.383C181.491 341.375 181.49 341.368 181.49 341.361C181.49 341.357 181.489 341.354 181.489 341.351C181.489 341.349 181.489 341.347 181.488 341.346C181.488 341.345 181.488 341.344 181.488 341.343C181.488 341.343 181.488 341.342 181.488 341.342C181.488 341.342 181.488 341.341 181.488 341.341C181.488 341.341 181.488 341.341 179 341.587ZM179.02 344.587H181.5V339.587H179.02V344.587ZM181.769 344.572L189.088 343.78L188.55 338.809L181.231 339.601L181.769 344.572ZM191.297 340.965C191.143 339.803 190.881 338.038 190.517 336.319C190.177 334.712 189.675 332.761 188.916 331.481L184.615 334.031C184.901 334.513 185.275 335.698 185.626 337.354C185.952 338.896 186.194 340.52 186.341 341.624L191.297 340.965ZM189.088 343.78L243.77 337.859L243.232 332.888L188.55 338.809L189.088 343.78ZM177.075 344.587H179.02V339.587H177.075V344.587ZM188.984 342.636C191.47 342.372 191.47 342.372 191.47 342.372C191.47 342.372 191.47 342.372 191.47 342.372C191.47 342.371 191.47 342.371 191.47 342.371C191.47 342.371 191.47 342.371 191.47 342.371C191.47 342.371 191.47 342.371 191.47 342.371C191.47 342.371 191.47 342.371 191.47 342.371C191.47 342.37 191.47 342.37 191.47 342.37C191.469 342.369 191.469 342.368 191.469 342.366C191.469 342.363 191.468 342.359 191.468 342.354C191.467 342.345 191.465 342.331 191.463 342.313L186.494 342.861C186.495 342.876 186.496 342.886 186.497 342.893C186.497 342.896 186.498 342.899 186.498 342.9C186.498 342.901 186.498 342.901 186.498 342.901C186.498 342.901 186.498 342.901 186.498 342.901C186.498 342.901 186.498 342.901 186.498 342.901C186.498 342.901 186.498 342.901 186.498 342.901C186.498 342.901 186.498 342.901 186.498 342.901C186.498 342.901 186.498 342.901 186.498 342.901C186.498 342.901 186.498 342.901 186.498 342.901C186.498 342.901 186.498 342.901 188.984 342.636ZM188.978 340.087H179.026V345.087H188.978V340.087ZM176.527 342.604C176.53 343.148 176.526 344.001 176.501 345.306L181.5 345.405C181.526 344.07 181.531 343.17 181.526 342.57L176.527 342.604ZM175.429 361.141L175.435 361.175L180.352 360.269L180.346 360.234L175.429 361.141ZM176.52 342.14C176.523 342.259 176.525 342.412 176.527 342.604L181.526 342.57C181.525 342.356 181.522 342.18 181.519 342.034L176.52 342.14ZM186.341 341.624C186.427 342.272 186.479 342.727 186.494 342.861L191.463 342.313C191.445 342.15 191.39 341.657 191.297 340.965L186.341 341.624ZM177.054 345.087H179.026V340.087H177.054V345.087ZM188.978 345.087H211.5V340.087H188.978V345.087ZM255.5 53.0869C256.013 50.6401 256.013 50.6401 256.013 50.6401C256.013 50.6401 256.013 50.6401 256.012 50.6401C256.012 50.64 256.012 50.64 256.012 50.64C256.012 50.64 256.012 50.64 256.012 50.64C256.012 50.6399 256.011 50.6398 256.011 50.6398C256.01 50.6396 256.009 50.6394 256.008 50.6392C256.006 50.6387 256.003 50.638 255.999 50.6371C255.99 50.6354 255.978 50.633 255.963 50.6298C255.933 50.6235 255.888 50.6143 255.83 50.6025C255.714 50.5789 255.544 50.5446 255.323 50.501L254.355 55.4064C254.566 55.448 254.726 55.4803 254.832 55.502C254.886 55.5128 254.925 55.521 254.951 55.5264C254.964 55.529 254.974 55.531 254.98 55.5323C254.983 55.5329 254.985 55.5333 254.986 55.5336C254.987 55.5337 254.987 55.5338 254.987 55.5338C254.987 55.5338 254.987 55.5339 254.987 55.5338C254.987 55.5338 254.987 55.5338 254.987 55.5338C254.987 55.5338 254.987 55.5338 254.987 55.5338C254.987 55.5338 254.987 55.5338 254.987 55.5338C254.987 55.5338 254.987 55.5338 255.5 53.0869ZM253.925 50.6268L253.586 50.76L255.414 55.4138L255.753 55.2806L253.925 50.6268ZM274.643 124.223L271.897 125.225L273.612 129.922L276.357 128.919L274.643 124.223ZM273.842 129.824C276.098 128.734 278.206 127.894 279.751 127.326C280.521 127.042 281.148 126.828 281.578 126.687C281.792 126.616 281.958 126.563 282.067 126.528C282.122 126.511 282.162 126.499 282.188 126.491C282.201 126.487 282.21 126.484 282.215 126.482C282.218 126.482 282.22 126.481 282.22 126.481C282.221 126.481 282.221 126.481 282.221 126.481C282.221 126.481 282.22 126.481 282.22 126.481C282.22 126.481 282.22 126.481 282.22 126.481C282.22 126.481 282.22 126.481 281.5 124.087C280.78 121.693 280.78 121.693 280.78 121.693C280.78 121.693 280.779 121.693 280.779 121.693C280.779 121.693 280.778 121.693 280.778 121.694C280.776 121.694 280.775 121.694 280.774 121.695C280.77 121.696 280.766 121.697 280.761 121.699C280.751 121.702 280.737 121.706 280.719 121.712C280.683 121.723 280.632 121.738 280.566 121.759C280.436 121.8 280.248 121.86 280.01 121.939C279.534 122.096 278.854 122.328 278.026 122.633C276.371 123.241 274.106 124.144 271.667 125.322L273.842 129.824ZM281.5 124.087C282.322 126.448 282.322 126.448 282.322 126.448C282.322 126.448 282.322 126.448 282.322 126.448C282.322 126.448 282.322 126.448 282.322 126.448C282.323 126.448 282.324 126.447 282.325 126.447C282.327 126.446 282.33 126.445 282.334 126.444C282.342 126.441 282.355 126.436 282.372 126.43C282.406 126.419 282.457 126.401 282.524 126.378C282.658 126.331 282.857 126.263 283.115 126.173C283.632 125.995 284.387 125.736 285.338 125.412C287.24 124.764 289.922 123.857 293.045 122.826L291.477 118.078C288.336 119.116 285.638 120.027 283.725 120.679C282.768 121.005 282.008 121.267 281.486 121.446C281.225 121.536 281.023 121.606 280.887 121.653C280.819 121.677 280.767 121.695 280.732 121.707C280.714 121.713 280.701 121.718 280.692 121.721C280.687 121.723 280.684 121.724 280.682 121.725C280.68 121.725 280.68 121.725 280.679 121.726C280.679 121.726 280.678 121.726 280.678 121.726C280.678 121.726 280.678 121.726 280.678 121.726C280.678 121.726 280.678 121.726 281.5 124.087ZM293.118 122.8L296.857 121.435L295.143 116.738L291.404 118.104L293.118 122.8ZM298.212 117.923C297.351 116.285 296.126 114.894 294.816 113.606C293.541 112.353 291.96 110.988 290.463 109.616C287.384 106.791 283.923 103.28 280.767 97.7993L276.434 100.294C279.946 106.394 283.815 110.302 287.083 113.3C288.761 114.839 290.108 115.988 291.31 117.171C292.478 118.319 293.28 119.286 293.788 120.251L298.212 117.923ZM280.767 97.7993C275.554 88.7428 271 73.9889 271 47.5869H266C266 74.5342 270.644 90.2361 276.434 100.294L280.767 97.7993ZM267.586 45.26L256.777 49.5062L258.606 54.16L269.414 49.9138L267.586 45.26ZM256.468 49.6528C255.768 50.0454 255.212 50.364 254.828 50.5852C254.637 50.6959 254.488 50.7823 254.387 50.8415C254.336 50.8711 254.297 50.8939 254.271 50.9095C254.257 50.9174 254.247 50.9234 254.24 50.9276C254.236 50.9297 254.234 50.9314 254.232 50.9326C254.231 50.9331 254.23 50.9336 254.229 50.934C254.229 50.9342 254.229 50.9343 254.228 50.9344C254.228 50.9345 254.228 50.9345 254.228 50.9346C254.228 50.9346 254.228 50.9346 254.228 50.9347C254.228 50.9347 254.228 50.9347 255.5 53.0869C256.772 55.2392 256.772 55.2392 256.772 55.2392C256.772 55.2392 256.772 55.2392 256.772 55.2392C256.772 55.2392 256.772 55.2393 256.772 55.2393C256.772 55.2393 256.772 55.2392 256.772 55.2392C256.772 55.2391 256.772 55.2389 256.773 55.2385C256.774 55.2378 256.776 55.2367 256.779 55.2351C256.784 55.2319 256.793 55.2269 256.804 55.2201C256.827 55.2065 256.863 55.1858 256.91 55.1584C257.004 55.1035 257.144 55.0216 257.328 54.9156C257.695 54.7036 258.234 54.3952 258.915 54.0134L256.468 49.6528ZM280.829 38.6786C272.214 41.0782 261.047 47.0838 256.468 49.6528L258.915 54.0134C263.536 51.4206 274.213 45.7117 282.171 43.4953L280.829 38.6786ZM293.045 122.826C300.645 120.315 310.794 117.08 318.639 115.004L317.36 110.17C309.359 112.287 299.089 115.563 291.477 118.078L293.045 122.826ZM278.5 99.087C279.438 101.404 279.438 101.404 279.438 101.404C279.438 101.404 279.438 101.404 279.438 101.404C279.438 101.404 279.438 101.404 279.438 101.404C279.438 101.404 279.438 101.404 279.438 101.404C279.438 101.404 279.438 101.404 279.438 101.404C279.438 101.404 279.438 101.404 279.438 101.404C279.438 101.404 279.438 101.404 279.438 101.404C279.439 101.404 279.44 101.404 279.442 101.403C279.445 101.402 279.45 101.399 279.458 101.396C279.472 101.391 279.496 101.381 279.527 101.369L277.675 96.7244C277.639 96.7386 277.612 96.7495 277.593 96.7571C277.584 96.7609 277.576 96.7638 277.571 96.766C277.569 96.767 277.566 96.7679 277.565 96.7685C277.564 96.7688 277.563 96.7691 277.563 96.7693C277.563 96.7694 277.562 96.7695 277.562 96.7695C277.562 96.7696 277.562 96.7696 277.562 96.7697C277.562 96.7697 277.562 96.7697 277.562 96.7697C277.562 96.7697 277.562 96.7697 277.562 96.7697C277.562 96.7697 277.562 96.7697 277.562 96.7697C277.562 96.7697 277.562 96.7697 278.5 99.087ZM279.527 101.369C280.896 100.823 297.078 94.4619 315.945 91.047L315.055 86.1269C295.701 89.63 279.157 96.1332 277.675 96.7244L279.527 101.369ZM273.612 129.922L293.118 122.8L291.404 118.104L271.897 125.225L273.612 129.922ZM262.155 138.854C264.279 135.24 269.106 132.113 273.842 129.824L271.667 125.322C266.851 127.649 260.787 131.314 257.845 136.32L262.155 138.854ZM256.777 49.5062L253.925 50.6268L255.753 55.2806L258.606 54.16L256.777 49.5062ZM255.323 50.501C252.714 49.9864 242.913 48.1529 231.894 47.3798C226.386 46.9933 220.518 46.8676 215.064 47.3192C209.648 47.7675 204.44 48.7991 200.372 50.8559L202.628 55.3179C205.857 53.6851 210.323 52.7287 215.476 52.3021C220.59 51.8788 226.184 51.9914 231.544 52.3675C242.265 53.1197 251.836 54.9094 254.355 55.4064L255.323 50.501ZM429.823 98.2311C428.743 95.2324 426.096 88.2388 422.312 80.66C418.556 73.1357 413.561 64.7881 407.716 59.2692L404.283 62.9047C409.469 67.8014 414.148 75.5004 417.839 82.8933C421.502 90.2316 424.074 97.0257 425.118 99.9247L429.823 98.2311ZM364.334 87.5815C375.157 88.303 390.394 91.6515 403.21 94.9161C415.974 98.1676 426.137 101.283 426.735 101.467L428.205 96.6883C427.568 96.4922 417.319 93.3506 404.444 90.0708C391.62 86.8042 375.99 83.3474 364.666 82.5926L364.334 87.5815ZM426.735 101.467C426.745 101.47 426.752 101.472 426.756 101.474C426.758 101.474 426.76 101.475 426.761 101.475C426.762 101.475 426.762 101.476 426.762 101.476C426.762 101.476 426.762 101.476 426.762 101.476C426.762 101.476 426.762 101.476 426.762 101.476C426.762 101.476 426.762 101.476 426.762 101.476C426.762 101.476 426.762 101.476 426.762 101.476C426.762 101.476 426.762 101.476 426.762 101.476C426.762 101.476 426.762 101.476 426.762 101.476C426.762 101.476 426.762 101.476 427.5 99.087C428.238 96.6983 428.238 96.6983 428.238 96.6983C428.238 96.6983 428.238 96.6983 428.238 96.6983C428.238 96.6983 428.238 96.6983 428.238 96.6983C428.238 96.6983 428.238 96.6983 428.238 96.6983C428.238 96.6983 428.238 96.6983 428.238 96.6983C428.238 96.6983 428.237 96.6982 428.237 96.6982C428.237 96.6982 428.237 96.6981 428.237 96.6981C428.236 96.6979 428.236 96.6978 428.235 96.6975C428.234 96.6971 428.232 96.6964 428.229 96.6956C428.223 96.6939 428.216 96.6915 428.205 96.6883L426.735 101.467ZM428 100.587C430.371 99.7936 430.371 99.7935 430.371 99.7935C430.371 99.7935 430.371 99.7934 430.371 99.7934C430.371 99.7933 430.37 99.7932 430.37 99.7931C430.37 99.7929 430.37 99.7927 430.37 99.7924C430.37 99.7919 430.37 99.7913 430.37 99.7905C430.369 99.7889 430.368 99.7868 430.367 99.7842C430.366 99.779 430.363 99.7717 430.36 99.7623C430.354 99.7435 430.345 99.7164 430.333 99.6813C430.309 99.6111 430.274 99.5088 430.228 99.3761C430.136 99.1108 430 98.7241 429.823 98.2311L425.118 99.9247C425.289 100.398 425.418 100.766 425.503 101.013C425.546 101.137 425.578 101.231 425.599 101.293C425.61 101.324 425.618 101.347 425.623 101.361C425.625 101.369 425.627 101.374 425.628 101.377C425.628 101.379 425.629 101.38 425.629 101.38C425.629 101.38 425.629 101.381 425.629 101.381C425.629 101.381 425.629 101.381 425.629 101.381C425.629 101.381 425.629 101.381 425.629 101.38C425.629 101.38 425.629 101.38 425.629 101.38C425.629 101.38 425.629 101.38 428 100.587ZM191.469 342.365L191.464 342.316L186.493 342.858L186.499 342.907L191.469 342.365ZM254.5 53.0869C252.151 52.2318 252.151 52.2325 252.15 52.2333C252.15 52.2338 252.15 52.2347 252.149 52.2355C252.149 52.2372 252.148 52.2392 252.147 52.2416C252.145 52.2465 252.143 52.2529 252.14 52.2608C252.135 52.2767 252.127 52.2988 252.117 52.327C252.097 52.3833 252.069 52.4638 252.033 52.5677C251.962 52.7753 251.861 53.0762 251.737 53.4627C251.488 54.2355 251.148 55.3516 250.771 56.7493C250.016 59.5419 249.108 63.4745 248.491 68.0503C247.265 77.139 247.143 89.067 251.956 99.632L256.506 97.5592C252.261 88.2396 252.273 77.4132 253.446 68.7187C254.028 64.4029 254.886 60.6867 255.598 58.0533C255.953 56.7381 256.271 55.697 256.497 54.9908C256.611 54.6377 256.701 54.3687 256.762 54.1913C256.792 54.1026 256.815 54.0369 256.83 53.995C256.838 53.974 256.843 53.9591 256.846 53.9502C256.848 53.9458 256.849 53.9429 256.849 53.9415C256.85 53.9408 256.85 53.9405 256.85 53.9406C256.85 53.9406 256.85 53.941 256.85 53.941C256.849 53.9414 256.849 53.942 254.5 53.0869ZM251.956 99.632C252.963 101.842 254.186 103.994 255.661 106.046L259.721 103.128C258.449 101.358 257.387 99.4918 256.506 97.5592L251.956 99.632ZM231.654 102.495L254.385 101.091L254.077 96.1004L231.346 97.5048L231.654 102.495Z" fill="black"/>
<path d="M162 334.587C167.5 323.087 174 325.587 175.5 335.086C177 344.586 176.5 358.087 175 364.587C173.576 370.759 162.233 347.627 161.092 345.277C161.026 345.141 161 345.01 161.002 344.858C161.016 343.494 161.129 336.407 162 334.587Z" fill="#C4C4C4"/>
<path d="M186 350.087C185 359.087 184.433 365.587 182.5 365.587C180 361.587 179 357.595 179 349.587C180 328.587 183 332.087 183 332.087C183 332.087 188 337.087 186 350.087Z" fill="#C4C4C4"/>
<path d="M286 353.087C283.444 357.012 272.075 353.795 258.884 345.207C245.694 336.619 236.444 326.512 239 322.587C241.556 318.661 254.948 322.404 268.139 330.991C287 350.087 288.556 349.161 286 353.087Z" fill="#C4C4C4"/>
<path d="M230.5 90.5869C230.5 91.151 231 93.5 228 97.5C226.482 99.2865 224.659 100.736 219.5 101.5C215.256 102.129 213.198 101.706 211 101C206.205 99.4599 204 93.631 204 89.0869C204 82.4595 210.044 77.0869 217.5 77.0869C224.956 77.0869 230.5 84.5042 230.5 90.5869Z" fill="#FF8310"/>
<circle cx="217.5" cy="89.5" r="10.5" fill="#283FB6"/>
<circle cx="217.5" cy="89.5869" r="7.5" fill="#180202"/>
<ellipse cx="214" cy="89.0869" rx="1" ry="3" fill="#F2E5E5"/>
<path d="M342.837 48.9799C343.058 51.178 324 48.9799 307.5 51C291 53.0201 275.621 57.9556 275.4 55.7576C275.179 53.5595 293.377 46.1675 306 44.5C320.367 42.6021 342.616 46.7819 342.837 48.9799Z" fill="#FFF6A7"/>
<path d="M170.562 268.105C162.83 292.567 132.386 339.044 127.5 337.5C122.614 335.956 153.442 299.248 164.268 265C175.094 230.752 172.882 203.456 177.768 205C182.654 206.545 178.295 243.642 170.562 268.105Z" fill="black"/>
<path d="M372.384 76.0008C374.355 81.3093 377 85 382.884 86.0008C388.768 87.0015 424.384 96.5008 424.384 96.5008C424.384 96.5008 422.698 92.2034 421.5 89.5C419.378 84.7096 418.152 82.0186 415.5 77.5C411.052 69.9221 402 59.5 402 59.5C402 59.5 397.148 54.9447 392.884 55.0008C388.807 55.0544 386.571 55.0874 382.884 56.5007C378.07 58.3457 374.647 60.242 372.384 64.5008C370.277 68.4667 370.821 71.7905 372.384 76.0008Z" fill="#2C2828" stroke="#2C2828"/>
<path d="M225.674 100.929C229.004 98.5829 230.247 96.7856 231.542 92.8319" stroke="black" stroke-width="2"/>
</svg>
